<svg width="512" height="512" viewBox="0 0 512 512" fill="none" xmlns="http://www.w3.org/2000/svg">
<g clip-path="url(#clip0_15_4511)">
<path d="M255.625 -0.312501C256.645 -0.312501 257.665 -0.312501 258.705 -0.302501C273.315 -0.252501 287.655 -0.00250077 302.005 2.9975C302.975 3.1975 303.945 3.3975 304.955 3.5975C353.335 13.7275 397.325 35.6375 433.005 69.9975C433.985 70.9475 433.985 70.9475 434.995 71.9175C444.485 81.0575 453.225 90.3575 461.005 100.997C461.855 102.147 462.715 103.297 463.575 104.457C469.615 112.647 474.975 121.158 480.005 129.997C480.365 130.628 480.725 131.268 481.105 131.917C502.715 169.667 512.475 212.428 512.315 255.628C512.315 256.648 512.305 257.657 512.305 258.707C512.255 273.317 512.005 287.647 509.005 301.997C508.705 303.457 508.705 303.457 508.395 304.957C498.275 353.337 476.365 397.327 442.005 432.997C441.365 433.657 440.735 434.317 440.085 434.997C430.945 444.487 421.645 453.227 411.005 460.997C409.845 461.857 408.695 462.718 407.545 463.577C399.355 469.607 390.855 474.997 382.005 479.997C381.295 480.397 380.585 480.807 379.855 481.217C356.725 494.247 331.555 502.997 305.565 508.307C304.845 508.457 304.125 508.607 303.385 508.757C288.705 511.548 274.185 512.348 259.275 512.317C256.335 512.317 253.395 512.337 250.455 512.357C237.085 512.407 224.185 511.197 211.005 508.997C209.295 508.717 209.295 508.717 207.555 508.427C164.285 500.657 123.235 480.667 90.0049 451.997C89.2549 451.367 88.5049 450.727 87.7449 450.077C74.2349 438.268 61.5649 425.517 51.0049 410.997C50.1449 409.847 49.2849 408.697 48.4249 407.547C42.3849 399.357 37.0049 390.857 32.0049 381.997C31.5949 381.297 31.1949 380.588 30.7849 379.857C17.7549 356.718 9.00489 331.548 3.68489 305.567C3.54489 304.847 3.39489 304.127 3.24489 303.387C0.264887 287.738 -0.375111 272.268 -0.315111 256.377C-0.315111 255.357 -0.305101 254.338 -0.305101 253.288C-0.255101 238.678 -0.00510335 224.348 3.0049 209.997C3.1949 209.027 3.39489 208.048 3.60489 207.048C13.7249 158.667 35.6349 114.677 70.0049 78.9975C70.6349 78.3375 71.2649 77.6775 71.9149 76.9975C81.0549 67.5175 90.3549 58.7775 101.005 50.9975C102.155 50.1375 103.305 49.2875 104.455 48.4275C112.645 42.3875 121.145 37.0075 130.005 31.9975C130.705 31.5975 131.415 31.1975 132.145 30.7775C155.275 17.7575 180.445 9.0075 206.435 3.6875C207.155 3.5375 207.875 3.3975 208.615 3.2375C224.265 0.267499 239.735 -0.372501 255.625 -0.312501Z" fill="url(#paint0_linear_15_4511)"/>
<path d="M255.623 0.187668H255.625C256.645 0.187668 257.663 0.187464 258.7 0.197433H258.704C273.315 0.247441 287.608 0.498111 301.903 3.4865L301.904 3.48747C302.872 3.68703 303.842 3.88605 304.852 4.08611V4.08708C353.148 14.1996 397.051 36.0687 432.658 70.3576L434.649 72.2785C444.127 81.4073 452.845 90.6846 460.601 101.292L460.603 101.295C461.452 102.444 462.315 103.597 463.172 104.753V104.754C469.198 112.924 474.547 121.417 479.57 130.244L479.571 130.245L480.673 132.17C501.896 169.245 511.667 211.171 511.815 253.605V255.627C511.815 256.136 511.813 256.642 511.81 257.153L511.805 258.707C511.755 273.318 511.503 287.601 508.515 301.895V301.897L507.905 304.857C497.802 353.152 475.934 397.054 441.646 432.65C441.004 433.311 440.373 433.972 439.723 434.652C430.594 444.13 421.318 452.848 410.71 460.594L410.708 460.596C409.548 461.456 408.397 462.316 407.249 463.175C399.588 468.815 391.653 473.895 383.412 478.621L381.759 479.562L379.61 480.781C356.532 493.782 331.411 502.516 305.464 507.818H305.463L303.286 508.268C288.65 511.049 274.166 511.848 259.276 511.818H259.275C256.333 511.818 253.391 511.837 250.452 511.857C237.114 511.906 224.243 510.7 211.087 508.504H211.085C209.378 508.224 209.377 508.224 207.642 507.935C165.138 500.302 124.777 480.853 91.8921 452.954L90.3315 451.619L90.3267 451.614L88.0698 449.697H88.0688C74.5772 437.903 61.939 425.181 51.4097 410.703L51.4058 410.698L50.1157 408.973L48.8257 407.248C42.8004 399.078 37.4312 390.597 32.4399 381.752L32.436 381.744C32.0287 381.049 31.6312 380.342 31.2212 379.612H31.2202C18.2193 356.524 9.48551 331.404 4.17432 305.467L3.73486 303.288C0.764519 287.686 0.125115 272.254 0.185059 256.379V256.377C0.18506 255.869 0.187438 255.36 0.189941 254.846C0.19244 254.333 0.194819 253.815 0.194824 253.289C0.244829 238.678 0.49629 224.394 3.49463 210.1L3.49561 210.094C3.68508 209.127 3.88464 208.149 4.09424 207.151V207.15C14.1968 158.853 36.0658 114.95 70.3647 79.3439L70.3667 79.3429C70.9962 78.6835 71.6246 78.0232 72.2739 77.3439L72.2749 77.3449C81.4043 67.8759 90.6824 59.1581 101.3 51.4015L101.304 51.3976C101.878 50.9682 102.453 50.541 103.028 50.1134C103.603 49.6861 104.178 49.2577 104.753 48.8273C112.924 42.802 121.407 37.4342 130.251 32.4328L130.253 32.4318C130.949 32.0345 131.664 31.6309 132.394 31.2111L132.393 31.2101C155.47 18.2203 180.59 9.48785 206.536 4.17693H206.537C207.242 4.02996 207.971 3.88671 208.708 3.72771L208.708 3.72868C224.313 0.767429 239.746 0.127731 255.623 0.187668Z" stroke="black" stroke-opacity="0.1"/>
<path d="M303.279 132.494C326.789 153.064 344.019 181.384 346.999 213.004C348.009 228.614 347.399 245.164 341.999 260.004C340.749 260.034 340.749 260.034 339.469 260.074C316.669 261.184 296.629 270.334 280.799 286.914C277.509 290.724 274.699 294.754 271.999 299.004C271.479 299.824 270.949 300.644 270.409 301.484C263.069 313.844 260.379 327.864 258.999 342.004C257.169 342.484 255.339 342.964 253.499 343.434C252.479 343.704 251.459 343.974 250.409 344.244C225.359 349.784 196.989 346.784 174.129 335.184C173.429 334.834 172.729 334.484 172.009 334.114C142.099 318.824 121.039 294.204 110.309 262.454C100.109 230.854 103.879 198.424 118.709 168.974C134.149 139.584 160.809 119.614 191.829 109.034C229.859 97.5941 273.109 107.054 303.279 132.494Z" fill="url(#paint1_linear_15_4511)"/>
<path d="M191.973 109.513C229.542 98.212 272.24 107.397 302.25 132.285L302.957 132.876C326.388 153.38 343.535 181.587 346.501 213.051C347.5 228.517 346.899 244.854 341.641 259.513C340.722 259.535 340.604 259.538 339.453 259.574H339.444C316.516 260.691 296.356 269.896 280.437 286.569L280.428 286.578L280.421 286.587C277.109 290.422 274.284 294.474 271.577 298.736V298.737C271.058 299.555 270.529 300.373 269.988 301.214L269.983 301.221L269.979 301.229C262.643 313.582 259.928 327.561 258.536 341.608C256.818 342.058 255.1 342.509 253.375 342.949L253.371 342.95C252.353 343.22 251.337 343.489 250.291 343.758C225.348 349.272 197.102 346.281 174.355 334.738L174.352 334.737C173.652 334.386 172.954 334.038 172.237 333.669H172.236C142.909 318.677 122.128 294.686 111.291 263.772L110.783 262.294C100.63 230.834 104.379 198.543 119.155 169.199L119.154 169.198C134.522 139.951 161.061 120.06 191.973 109.513Z" stroke="black" stroke-opacity="0.05"/>
<g filter="url(#filter0_f_15_4511)">
<path d="M381.856 290.172C384.346 292.362 386.686 294.622 388.996 297.002C389.626 297.592 390.246 298.182 390.886 298.792C401.776 309.892 407.206 326.152 407.376 341.372C407.176 360.082 400.806 375.222 387.676 388.472C384.306 391.662 380.856 394.422 376.996 397.002C375.666 398.052 375.666 398.052 374.316 399.122C369.976 401.582 365.506 402.812 360.736 404.172C358.116 404.732 358.116 404.732 356.996 406.002C346.726 407.822 336.046 407.962 325.996 405.002C324.836 404.722 324.836 404.722 323.656 404.442C307.036 400.182 293.966 388.262 284.996 374.002C282.596 369.492 280.716 364.802 278.996 360.002C278.736 359.252 278.466 358.512 278.196 357.742C273.516 341.262 277.746 323.562 285.626 308.912C294.446 293.642 310.006 282.992 326.746 278.062C345.966 273.962 366.136 278.212 381.856 290.172Z" fill="url(#paint2_linear_15_4511)"/>
<path d="M326.865 278.547C345.936 274.483 365.945 278.701 381.539 290.559C384.013 292.735 386.339 294.982 388.637 297.35L388.645 297.359L388.654 297.367C389.282 297.955 389.9 298.544 390.54 299.154C401.314 310.143 406.706 326.264 406.875 341.377C406.674 359.952 400.357 374.964 387.321 388.12C383.974 391.286 380.55 394.025 376.718 396.586L376.701 396.597L376.686 396.61C375.367 397.651 375.355 397.659 374.038 398.703C369.773 401.114 365.377 402.328 360.611 403.687C359.346 403.957 358.618 404.11 358.083 404.371C357.552 404.631 357.217 404.996 356.739 405.538C346.572 407.32 336.037 407.438 326.137 404.522L326.125 404.519L326.113 404.516L323.779 403.957H323.78C307.324 399.739 294.35 387.929 285.425 373.746C283.345 369.833 281.655 365.779 280.117 361.623L279.466 359.833C279.209 359.093 278.935 358.341 278.671 357.589C274.047 341.285 278.224 323.734 286.059 309.162C294.799 294.03 310.231 283.451 326.865 278.547Z" stroke="black" stroke-opacity="0.05"/>
</g>
<path d="M229 158C231.81 160.44 231.81 160.44 234 163C234.33 163.33 234.66 163.66 235 164C235.09 165.66 235.12 167.32 235.11 168.98C235.11 170.04 235.11 171.1 235.11 172.19C235.11 173.35 235.1 174.5 235.1 175.69C235.1 176.87 235.09 178.04 235.09 179.25C235.09 183.02 235.08 186.79 235.06 190.56C235.06 193.11 235.05 195.66 235.05 198.21C235.04 204.47 235.02 210.74 235 217C236.19 216.98 237.37 216.97 238.59 216.95C243 216.9 247.41 216.86 251.82 216.84C253.72 216.82 255.63 216.8 257.53 216.77C260.28 216.74 263.02 216.72 265.76 216.71C267.04 216.68 267.04 216.68 268.33 216.66C273.05 216.66 276.2 216.9 280 220C282.34 223.51 282.5 224.86 282 229C279.85 232.34 278.8 233.73 275 235C273.32 235.11 271.64 235.16 269.97 235.18C268.94 235.19 267.92 235.2 266.86 235.22C265.75 235.22 264.65 235.23 263.51 235.24C262.37 235.25 261.23 235.25 260.06 235.26C257.65 235.28 255.24 235.29 252.83 235.3C249.15 235.31 245.46 235.36 241.78 235.4C239.44 235.41 237.1 235.42 234.76 235.43C233.66 235.44 232.55 235.46 231.42 235.48C223.79 235.46 223.79 235.46 219.83 233.16C216.77 229.55 216.86 226.43 216.82 221.86C216.81 220.6 216.8 219.33 216.78 218.03C216.78 216.65 216.77 215.27 216.76 213.88C216.76 213.19 216.75 212.49 216.75 211.77C216.73 208.08 216.71 204.39 216.7 200.7C216.69 196.9 216.66 193.09 216.62 189.29C216.59 186.36 216.59 183.43 216.58 180.5C216.58 179.09 216.57 177.69 216.55 176.29C216.52 174.32 216.53 172.36 216.53 170.4C216.52 169.28 216.52 168.16 216.51 167.01C217.11 163.32 218.42 161.66 221 159C223.89 157.56 225.8 157.62 229 158Z" fill="#FFDD43"/>
<path d="M368.094 317.184C372.004 318.004 372.004 318.004 374.564 319.504C376.164 322.284 376.874 324.534 376.684 327.764C373.854 336.994 360.804 346.354 354.044 353.094C352.034 355.084 350.044 357.094 348.044 359.094C346.774 360.364 345.494 361.634 344.224 362.914C343.624 363.504 343.034 364.104 342.414 364.724C339.004 368.114 337.264 369.774 332.504 370.624C327.034 370.574 324.124 367.104 320.404 363.454C319.214 362.244 319.214 362.244 318.004 361.004C317.304 360.324 316.604 359.644 315.884 358.954C309.164 352.424 309.164 352.424 308.564 347.124C308.654 343.704 309.024 342.974 311.124 340.004C314.004 338.004 314.004 338.004 316.814 337.314C322.484 338.534 327.194 342.694 331.004 347.004C331.004 347.664 331.004 348.324 331.004 349.004C335.884 344.984 340.364 340.654 344.714 336.064C345.744 334.994 346.764 333.924 347.794 332.854C349.374 331.204 350.954 329.544 352.504 327.874C362.344 317.294 362.344 317.294 368.094 317.184Z" fill="#FFDD43"/>
<path d="M229 311C234.51 314.26 234.51 314.26 235.55 317.94C235.81 321.81 235.2 323.69 233.06 327C229.48 329.34 227.3 329.74 223.09 329.48C221 329 221 329 218.44 327C216.6 323.18 215.89 320.15 217 316C220.62 311.86 223.48 309.85 229 311Z" fill="#FFDD43"/>
<path d="M162 284C165.38 285.19 165.93 285.9 168 289C168.22 293.03 167.91 296.8 165.44 300.06C161.9 301.42 158.69 301.77 155 301C152 298.94 152 298.94 150 296C149.38 292.5 149.38 292.5 150 289C153.46 284.08 156.11 283.25 162 284Z" fill="#FFDD43"/>
<path d="M319.937 216.375C324.187 217.245 326.117 218.775 328.997 221.995C329.767 226.325 329.527 228.195 327.127 231.875C324.627 234.375 323.677 234.905 320.187 235.375C316.997 234.995 316.997 234.995 314.127 232.995C311.757 229.655 311.247 227.935 311.517 223.935C312.657 219.385 315.527 217.315 319.937 216.375Z" fill="#FFDD43"/>
<path d="M134 217C137.34 218.21 137.95 218.92 140 222C140.4 225.1 140.65 227.04 140 230C137.44 233.06 137.44 233.06 134 235C130.05 235.07 127.88 234.57 124.56 232.44C122.74 229.6 122.37 227.34 122.55 223.97C123.92 217.96 128.39 216.16 134 217Z" fill="#FFDD43"/>
<path d="M229 123C232.75 125.04 233.77 126.32 235.12 130.38C235 134 235 134 233.06 137.44C229.7 140.25 228.2 140.93 223.94 140.58C220.2 139.46 218.85 137.29 217 134C216.93 130.01 217.42 127.87 219.62 124.56C222.98 122.36 225.06 122.45 229 123Z" fill="#FFDD43"/>
<path d="M163 151C166.45 153.44 167.78 154.83 168.56 159C167.88 162.66 166.57 164.35 164 167C161.11 168.44 159.2 168.38 156 168C153.13 166 151.35 164.53 150.55 161.03C150.37 157.68 150.78 155.37 152.5 152.5C155.99 150.41 159.1 150.11 163 151Z" fill="#FFDD43"/>
<path d="M294.871 150.59C297.001 151 297.001 151 299.561 152.5C301.601 156.04 301.791 159.01 301.001 163C298.861 166.33 297.371 166.89 293.561 168C290.001 168 290.001 168 287.121 166.19C284.641 163.63 284.081 162.71 283.691 159.19C284.391 151.99 288.211 150.16 294.871 150.59Z" fill="#FFDD43"/>
</g>
<defs>
<filter id="filter0_f_15_4511" x="272.243" y="272.542" width="139.132" height="138.767" filterUnits="userSpaceOnUse" color-interpolation-filters="sRGB">
<feFlood flood-opacity="0" result="BackgroundImageFix"/>
<feBlend mode="normal" in="SourceGraphic" in2="BackgroundImageFix" result="shape"/>
<feGaussianBlur stdDeviation="2" result="effect1_foregroundBlur_15_4511"/>
</filter>
<linearGradient id="paint0_linear_15_4511" x1="105" y1="60.5" x2="421" y2="460" gradientUnits="userSpaceOnUse">
<stop stop-color="#FFDD43"/>
<stop offset="1" stop-color="#FFAD3B"/>
</linearGradient>
<linearGradient id="paint1_linear_15_4511" x1="161.5" y1="127.5" x2="258" y2="374" gradientUnits="userSpaceOnUse">
<stop stop-color="#FF6900"/>
<stop offset="1" stop-color="#FFA600"/>
</linearGradient>
<linearGradient id="paint2_linear_15_4511" x1="301" y1="296" x2="384" y2="407" gradientUnits="userSpaceOnUse">
<stop stop-color="#FF9D00"/>
<stop offset="1" stop-color="#FF6900"/>
</linearGradient>
<clipPath id="clip0_15_4511">
<rect width="512" height="512" fill="white"/>
</clipPath>
</defs>
</svg>
