<svg width="100" height="100" viewBox="0 0 100 100" fill="none" xmlns="http://www.w3.org/2000/svg">
<path d="M63.6 5C72.6 5 77.1 5 82 6.5C87.3 8.4 91.5 12.6 93.4 17.9C95 22.8 95 27.4 95 36.4V63.6C95 72.6 95 77.1 93.5 82C91.6 87.3 87.4 91.5 82.1 93.4C77.1 95 72.6 95 63.6 95H36.4C27.4 95 22.9 95 18 93.5C12.6 91.5 8.5 87.4 6.5 82C5 77.2 5 72.7 5 63.6V36.4C5 27.4 5 22.9 6.5 18C8.5 12.7 12.6 8.5 18 6.6C22.8 5 27.3 5 36.4 5H63.6Z" fill="url(#paint0_linear_17_4492)"/>
<path d="M41.8819 45.7119C43.4483 47.1628 44.3679 49.1934 44.4735 51.3164C44.5241 53.5054 43.7343 55.5866 42.2592 57.2058C41.916 57.5413 41.542 57.8361 41.1658 58.1342C40.7203 58.5005 40.3023 58.8932 39.8854 59.2914C39.595 59.5664 39.3332 59.7996 38.9603 59.9503C38.9603 60.0229 38.9603 60.0955 38.9603 60.1703C38.792 60.3364 38.792 60.3364 38.5753 60.5135C38.5038 60.5729 38.4323 60.6323 38.3586 60.6939C38.3025 60.739 38.2475 60.7841 38.1903 60.8303C38.3652 60.8303 38.3652 60.8303 38.5434 60.8303C41.3836 60.8347 44.2249 60.8413 47.0651 60.8501C48.439 60.8545 49.8129 60.8578 51.1868 60.86C52.3847 60.8611 53.5826 60.8644 54.7805 60.8688C55.4141 60.871 56.0477 60.8732 56.6813 60.8732C57.2786 60.8732 57.8759 60.8754 58.4743 60.8787C58.6921 60.8798 58.911 60.8798 59.1288 60.8787C60.7337 60.8754 62.1604 60.9106 63.3693 62.1008C64.1371 62.9962 64.3021 63.7926 64.29 64.9498C64.2064 66.0377 63.5475 66.7263 62.7951 67.4578C61.9448 68.0111 61.1396 68.1541 60.1397 68.1453C60.0165 68.1453 59.8944 68.1464 59.769 68.1475C59.3609 68.1486 58.9539 68.1464 58.5458 68.1453C58.2532 68.1453 57.9595 68.1464 57.6669 68.1475C56.9541 68.1486 56.2424 68.1475 55.5307 68.1464C54.7002 68.1442 53.8697 68.1442 53.0392 68.1453C51.5575 68.1453 50.0758 68.1442 48.5941 68.1409C47.1586 68.1387 45.722 68.1376 44.2854 68.1387C42.7201 68.1398 41.1537 68.1409 39.5884 68.1387C39.4212 68.1387 39.254 68.1387 39.0868 68.1387C39.0043 68.1387 38.9229 68.1387 38.8382 68.1387C38.2596 68.1376 37.6821 68.1376 37.1035 68.1387C36.3984 68.1387 35.6944 68.1387 34.9893 68.1365C34.6296 68.1354 34.271 68.1343 33.9113 68.1354C33.5208 68.1354 33.1314 68.1343 32.7409 68.1332C32.5726 68.1332 32.5726 68.1332 32.3999 68.1343C31.1393 68.1233 30.223 67.7977 29.3144 66.921C28.628 66.1807 28.3684 65.3953 28.2661 64.4031C28.3409 63.2019 28.8249 62.2163 29.3903 61.1735C29.4596 61.0426 29.53 60.9106 29.5993 60.7797C29.728 60.5377 29.8567 60.2968 29.9865 60.057C30.0437 59.9492 30.1009 59.8414 30.1603 59.7303C30.223 59.6126 30.2868 59.4938 30.3528 59.3728C30.5255 59.0846 30.5255 59.0846 30.4078 58.836C30.3396 58.7337 30.3396 58.7337 30.2703 58.6303C30.2296 58.484 30.1922 58.3377 30.1603 58.1903C29.7214 58.5698 29.5036 59.001 29.2517 59.5125C29.2088 59.5972 29.1659 59.683 29.1219 59.771C29.0317 59.9514 28.9426 60.1318 28.8535 60.3133C28.7171 60.5883 28.5796 60.8622 28.4421 61.1361C28.3541 61.3121 28.2661 61.4881 28.1792 61.6641C28.1385 61.7455 28.0978 61.8269 28.056 61.9105C27.4818 63.0798 27.3168 64.3118 27.5995 65.59C27.7931 66.151 28.0593 66.6482 28.3948 67.1377C28.5103 67.3203 28.5103 67.3203 28.6203 67.6503C28.8216 67.7669 28.8216 67.7669 29.0603 67.8703C29.2176 67.9759 29.3727 68.0837 29.5278 68.1937C30.2219 68.6601 30.872 68.8834 31.7003 68.9703C31.8103 69.4103 31.8103 69.4103 30.8203 71.3903C25.2301 71.3903 19.6399 71.3903 13.8803 71.3903C13.7439 70.98 13.8143 70.8524 13.9573 70.4509C14.0013 70.3266 14.0453 70.2034 14.0904 70.0758C14.163 69.8756 14.163 69.8756 14.2378 69.671C14.262 69.6028 14.2873 69.5346 14.3126 69.4642C14.8351 68.0221 15.4368 66.6218 16.0803 65.2303C16.1287 65.1225 16.1782 65.0158 16.2277 64.9058C18.7225 59.4641 22.2667 54.2413 26.549 50.0349C26.7371 49.8435 26.9087 49.6455 27.0803 49.4387C27.3718 49.09 27.6952 48.804 28.0417 48.5114C28.3321 48.2518 28.6027 47.9768 28.8744 47.6985C29.3573 47.2079 29.8633 46.7646 30.4023 46.3378C30.6124 46.1684 30.817 45.9946 31.0172 45.8153C32.1656 44.7978 33.4845 44.0784 35.0003 43.7803C35.1873 43.7429 35.1873 43.7429 35.3787 43.7044C37.8229 43.4899 39.9789 44.1499 41.8819 45.7119Z" fill="black"/>
<path d="M56.34 26.07C58.4872 27.9807 59.8688 30.8484 60.0393 33.7183C60.1746 36.7334 59.4288 39.7738 57.3696 42.0783C57.2409 42.2125 57.2409 42.2125 57.11 42.35C57.0627 42.4028 57.0143 42.4545 56.9659 42.5095C55.0673 44.5962 52.3162 46.0746 49.4672 46.2132C45.8669 46.3397 42.9937 45.3255 40.2899 42.9495C38.1944 40.9651 36.9404 38.1172 36.8458 35.2407C36.7842 32.2652 37.5663 29.4778 39.51 27.17C39.5672 27.0886 39.6244 27.0072 39.6827 26.9236C39.7344 26.8598 39.7872 26.796 39.84 26.73C39.9126 26.73 39.9852 26.73 40.06 26.73C40.0963 26.6211 40.1326 26.5122 40.17 26.4C44.4919 21.835 51.7926 22.0781 56.34 26.07Z" fill="black"/>
<path d="M82.52 47.74C82.8852 48.0117 83.0491 48.3131 83.1558 48.7586C83.1833 49.2206 83.0876 49.5451 82.9127 49.9631C82.8687 50.0764 82.8687 50.0764 82.8225 50.1919C82.7235 50.4383 82.6223 50.6847 82.52 50.93C82.4507 51.0983 82.3825 51.2677 82.3132 51.436C82.0855 51.9904 81.8523 52.5426 81.6191 53.0959C81.5322 53.3016 81.4464 53.5084 81.3595 53.7152C80.6896 55.3091 80.0153 56.903 79.3421 58.4958C78.7536 59.8895 78.1662 61.2832 77.5832 62.6791C77.5502 62.7594 77.5172 62.8386 77.4831 62.92C77.1146 63.8044 76.7505 64.6899 76.3919 65.5776C76.3424 65.7008 76.3424 65.7008 76.2918 65.8262C76.1345 66.2145 75.9783 66.6028 75.8232 66.9922C75.7682 67.1297 75.7121 67.2672 75.6571 67.4058C75.6098 67.5246 75.5614 67.6445 75.513 67.7677C75.3755 68.0768 75.216 68.3518 75.04 68.64C75.1313 68.64 75.1313 68.64 75.2259 68.64C76.7153 68.6444 78.2058 68.651 79.6952 68.6598C80.4168 68.6642 81.1373 68.6686 81.8578 68.6697C82.553 68.6719 83.2482 68.6752 83.9434 68.6807C84.2085 68.6818 84.4747 68.6829 84.7398 68.6829C85.1116 68.6829 85.4823 68.6862 85.8541 68.6895C86.0191 68.6895 86.0191 68.6895 86.1874 68.6884C86.832 68.6983 87.1961 68.7643 87.69 69.19C87.9485 69.509 88.0156 69.7026 88.0684 70.1118C88.0123 70.5749 87.9012 70.9335 87.58 71.28C87.0729 71.5858 86.6516 71.6573 86.0708 71.6518C85.9454 71.6529 85.9454 71.6529 85.8167 71.6529C85.5362 71.6551 85.2557 71.654 84.9741 71.6529C84.7706 71.6529 84.5671 71.654 84.3636 71.654C83.8048 71.6562 83.246 71.6551 82.6872 71.6551C82.0844 71.654 81.4816 71.6551 80.8777 71.6562C79.6974 71.6584 78.516 71.6584 77.3346 71.6584C76.3754 71.6573 75.4151 71.6584 74.4559 71.6584C74.2513 71.6584 74.2513 71.6584 74.0423 71.6584C73.7651 71.6584 73.4879 71.6595 73.2107 71.6595C71.3484 71.6606 69.4861 71.6606 67.6238 71.6595C67.5512 71.6595 67.4786 71.6595 67.4038 71.6595C66.812 71.6595 66.2202 71.6595 65.6295 71.6595C63.3228 71.6573 61.015 71.6584 58.7083 71.6617C56.1167 71.6639 53.5251 71.6661 50.9335 71.665C49.5607 71.6639 48.1879 71.665 46.8162 71.6661C45.648 71.6683 44.4798 71.6683 43.3116 71.6661C42.7154 71.665 42.1192 71.665 41.523 71.6672C40.9774 71.6683 40.4318 71.6683 39.8862 71.6661C39.6882 71.665 39.4913 71.6661 39.2933 71.6672C39.0249 71.6683 38.7576 71.6672 38.4892 71.665C38.3737 71.6672 38.3737 71.6672 38.2549 71.6683C37.7093 71.6606 37.4035 71.5066 36.98 71.17C36.6786 70.8521 36.6005 70.631 36.595 70.1932C36.6071 69.8027 36.6489 69.5552 36.8909 69.245C37.4739 68.7258 37.9887 68.7181 38.7356 68.7225C38.8852 68.7214 38.8852 68.7214 39.037 68.7214C39.3703 68.7203 39.7036 68.7214 40.0369 68.7214C40.2756 68.7214 40.5143 68.7214 40.753 68.7203C41.2678 68.7203 41.7826 68.7192 42.2974 68.7203C43.1114 68.7203 43.9254 68.7181 44.7394 68.717C47.0538 68.7115 49.3693 68.7093 51.6837 68.7082C52.9619 68.7082 54.2412 68.706 55.5194 68.7016C56.3279 68.6994 57.1364 68.6994 57.9449 68.7005C58.4498 68.7005 58.9536 68.6994 59.4574 68.6972C59.6906 68.6972 59.9238 68.6972 60.157 68.6983C62.0479 68.7357 62.0479 68.7357 63.6759 67.87C64.0818 67.4388 64.3073 66.9229 64.5394 66.3828C64.8595 66.0605 64.9442 66.0693 65.3831 66.0418C65.5008 66.0341 65.6196 66.0264 65.7428 66.0187C66.4281 65.9857 67.1134 65.9604 67.7987 65.9406C67.9549 65.9362 68.1111 65.9318 68.2673 65.9263C68.6721 65.9142 69.078 65.9021 69.4839 65.89C69.8997 65.8779 70.3155 65.8658 70.7324 65.8526C71.5442 65.8284 72.3571 65.8042 73.17 65.78C73.2008 65.6865 73.2008 65.6865 73.2316 65.5897C73.4043 65.0617 73.5913 64.5447 73.8036 64.0299C73.8322 63.9606 73.8608 63.8902 73.8905 63.8187C73.984 63.5899 74.0786 63.3622 74.1732 63.1334C74.2414 62.9695 74.3096 62.8056 74.3767 62.6417C75.0202 61.0863 75.6802 59.5375 76.3402 57.9887C77.2257 55.9108 78.098 53.8285 78.9626 51.7418C79.0462 51.5383 79.1309 51.3359 79.2156 51.1324C79.4389 50.5923 79.6611 50.0533 79.8701 49.5077C79.8987 49.4307 79.9284 49.3537 79.9592 49.2756C80.0296 49.0886 80.0989 48.9005 80.1682 48.7135C80.4036 48.2273 80.6907 47.8379 81.1725 47.575C81.6642 47.4991 82.0602 47.5475 82.52 47.74Z" fill="#141414"/>
<defs>
<linearGradient id="paint0_linear_17_4492" x1="49.986" y1="5.028" x2="49.986" y2="94.998" gradientUnits="userSpaceOnUse">
<stop stop-color="#FFE867"/>
<stop offset="1" stop-color="#FD9800"/>
</linearGradient>
</defs>
</svg>
